<?xml version="1.0" standalone="no"?><!DOCTYPE svg PUBLIC "-//W3C//DTD SVG 1.1//EN" "http://www.w3.org/Graphics/SVG/1.1/DTD/svg11.dtd"><svg t="1714397463679" class="icon" viewBox="0 0 1024 1024" version="1.1" xmlns="http://www.w3.org/2000/svg" p-id="2808" xmlns:xlink="http://www.w3.org/1999/xlink" width="200" height="200"><path d="M51.82 653c-8.91 44.56 17.93 151.32 186.56 151.32 104.16 0 204.39-63.33 286.06-169.57-116.19-56.59-213-84.15-321.3-84.15-93.38-0.04-142.3 57.89-151.32 102.4z" fill="#07A0F8" p-id="2809"></path><path d="M256.52 881c-160 0-266.88-98.87-254-219.52C11 582.27 65.3 452.72 301.29 474.9c124.37 11.6 181.28 34.82 282.71 68.4a799 799 0 0 0 64.6-157.43H198.79V341.3h222.52v-80H149.87v-49h271.44V96.8a21.56 21.56 0 0 1 22.39-18h111.21v133.46h289.37v49H554.91v80H791a911.48 911.48 0 0 1-95.87 240.35C746.23 600.2 932.79 657.83 1024 686V148A148.42 148.42 0 0 0 876 0H148A148.42 148.42 0 0 0 0 148v728a148.42 148.42 0 0 0 148 148h728a148.42 148.42 0 0 0 148-148v-13.17c-97.74-42.39-290.2-126.34-399.75-178.78C522.88 806.87 417 881 256.52 881z" fill="#07A0F8" p-id="2810"></path></svg>